<svg
  height="128px"
  width="128px"
  viewBox="0 0 512 512"
  version="1.1"
  xmlns="http://www.w3.org/2000/svg"
  xmlns:xlink="http://www.w3.org/1999/xlink"
  xml:space="preserve"
  fill="none"
>
  <mask id="forkMask">
    <rect x="0" y="0" width="100%" height="100%" fill="white" />
    <g transform="matrix(2.23149, 0, 0, 2.23149, -236.791, -117.396)">
      <path fill="black" d="M187.077,93.805c-4.661,0-8.44,3.779-8.44,8.44v51.205l16.879,16.312v-67.516 C195.516,97.584,191.738,93.805,187.077,93.805z" />
      <path fill="black" d="M220.835,93.805c-4.661,0-8.44,3.779-8.44,8.44v67.516h16.879v-67.516 C229.275,97.584,225.496,93.805,220.835,93.805z" />
      <path fill="black" d="M254.593,93.805c-4.661,0-8.44,3.779-8.44,8.44v67.516l16.879-16.312v-51.205 C263.033,97.584,259.254,93.805,254.593,93.805z" />
      <path fill="black" d="M 263.033 152.888 L 263.033 164.619 C 263.033 180.819 244.143 193.948 220.835 193.948 C 197.527 193.948 178.637 180.819 178.637 164.619 L 178.637 152.888 L 220.835 152.888 L 263.033 152.888 Z" id="object-0" />
    </g>
  </mask>
  <g mask="url(#forkMask)">
    <path style="fill:#9250E2;" d="M258.037,0.011L256,512l153.848-205.903c23.788-31.923,37.854-71.511,37.854-114.394 C447.702,86.5,362.98,1.103,258.037,0.011z" />
    <path style="fill:#A873E8;" d="M413.944,191.702c0,42.884-11.59,82.471-31.193,114.395L256,512L102.152,306.097 c-23.788-31.924-37.854-71.511-37.854-114.395C64.298,85.825,150.123,0,256,0c0.686,0,1.362,0,2.037,0.011 C344.334,1.339,413.944,86.657,413.944,191.702z" />
  </g>
</svg>
