<!-- Palette: https://coolors.co/f385d4-ebc2ff-9250e2-a873e8-5d7bd5-9acffe-56d1dc-c2ffee -->
<svg
  height="512px"
  width="512px"
  viewBox="0 0 512 512"
  version="1.1"
  xmlns="http://www.w3.org/2000/svg"
  xmlns:xlink="http://www.w3.org/1999/xlink"
  xml:space="preserve"
  fill="none"
>
  <g>
    <!-- Drop outer shadow -->
    <path style="fill:#9250E2;" d="M258.037,0.011L256,512l153.848-205.903c23.788-31.923,37.854-71.511,37.854-114.394 C447.702,86.5,362.98,1.103,258.037,0.011z" />
    <!-- Drop -->
    <path style="fill:#A873E8;" d="M413.944,191.702c0,42.884-11.59,82.471-31.193,114.395L256,512L102.152,306.097 c-23.788-31.924-37.854-71.511-37.854-114.395C64.298,85.825,150.123,0,256,0c0.686,0,1.362,0,2.037,0.011 C344.334,1.339,413.944,86.657,413.944,191.702z" />
    <!-- Drop inner shadow -->
    <path style="fill:#EBC2FF;" d="M257.598,34.175v315.054c86.275-0.855,155.941-71.05,155.941-157.526 C413.538,105.224,343.873,35.03,257.598,34.175z" />
    <!-- Circle -->
    <path style="fill:#FFFFFF;" d="M257.598,34.175c67.629,1.092,122.182,71.196,122.182,157.527s-54.553,156.436-122.182,157.527 c-0.529,0.011-1.069,0.011-1.598,0.011c-87.006,0-157.538-70.532-157.538-157.538S168.994,34.163,256,34.163 C256.529,34.163,257.069,34.163,257.598,34.175z" />
    <!-- Knife handle -->
    <path style="fill:#56D1DC;" d="M 307.484 191.695 L 307.484 288.251 C 307.484 293.656 311.263 298.038 315.924 298.038 C 320.585 298.038 324.364 293.656 324.364 288.251 L 324.364 213.874 L 307.484 191.695 Z" />
    <!-- Knife blade -->
    <path style="fill:#9ACFFE;" d="M 324.363 114.624 L 324.363 215.593 L 301.858 215.593 C 289.424 215.593 279.353 206.277 279.353 194.774 L 279.353 114.624 C 279.353 103.132 289.424 93.805 301.858 93.805 C 314.291 93.805 324.363 103.132 324.363 114.624 Z" />
    <!-- Fork handle -->
    <path style="fill:#56D1DC;" d="M 205.396 183.832 L 205.396 289.598 C 205.396 294.259 209.175 298.038 213.836 298.038 C 218.497 298.038 222.276 294.259 222.276 289.598 L 222.276 183.832 L 205.396 183.832 Z" />
    <!-- Fork claws -->
    <g style="fill:#9ACFFE;" transform="matrix(1, 0, 0, 1, -7, 0)">
      <!-- Left claw -->
      <path d="M187.077,93.805c-4.661,0-8.44,3.779-8.44,8.44v51.205l16.879,16.312v-67.516 C195.516,97.584,191.738,93.805,187.077,93.805z" />
      <!-- Middle claw -->
      <path d="M220.835,93.805c-4.661,0-8.44,3.779-8.44,8.44v67.516h16.879v-67.516 C229.275,97.584,225.496,93.805,220.835,93.805z" />
      <!-- Right claw -->
      <path d="M254.593,93.805c-4.661,0-8.44,3.779-8.44,8.44v67.516l16.879-16.312v-51.205 C263.033,97.584,259.254,93.805,254.593,93.805z" />
      <!-- Claws base -->
      <path d="M 263.033 152.887 L 263.033 165.244 C 263.033 182.309 244.143 196.139 220.835 196.139 C 197.527 196.139 178.637 182.309 178.637 165.244 L 178.637 152.887 L 220.835 152.887 L 263.033 152.887 Z" />
    </g>
  </g>
</svg>